<svg width="143" height="146" viewBox="0 0 143 146" fill="none" xmlns="http://www.w3.org/2000/svg">
<g id="undraw_mail_sent_re_0ofv 1" clipPath="url(#clip0_112_14)">
<g id="Group 1">
<path id="Polygon 2" d="M68.8762 2.49945C70.7024 1.03823 73.2976 1.03823 75.1238 2.49944L140.546 54.8459C144.236 57.7986 142.148 63.75 137.422 63.75H6.57773C1.85154 63.75 -0.236355 57.7986 3.45394 54.8459L68.8762 2.49945Z" fill="#D9D9D9"/>
<rect id="Rectangle 1" y="55" width="143" height="91" rx="3" fill="#D9D9D9"/>
</g>
<path id="Vector" d="M141.745 55.8334C141.694 55.8334 141.644 55.8155 141.602 55.7822L72.2199 0.825222C72.0088 0.658756 71.7579 0.569794 71.501 0.570292C71.2441 0.57079 70.9934 0.660724 70.7828 0.828008L1.90023 55.7817C1.84575 55.8251 1.77832 55.8422 1.71277 55.8291C1.64723 55.816 1.58893 55.7739 1.55072 55.7119C1.5125 55.6499 1.49749 55.5732 1.509 55.4987C1.5205 55.4241 1.55757 55.3578 1.61206 55.3144L70.4947 0.360713C70.7896 0.12655 71.1405 0.000676908 71.5002 4.61451e-06C71.8598 -0.000667679 72.2111 0.123892 72.5067 0.356951L141.889 55.3138C141.933 55.3485 141.966 55.3983 141.983 55.4558C142 55.5133 142.001 55.5756 141.985 55.6335C141.969 55.6915 141.937 55.7421 141.894 55.7781C141.851 55.814 141.799 55.8334 141.745 55.8334Z" fill="#3F3D56"/>
<path id="Vector_2" d="M5.83641 57.7814L71.5692 2.37372L137.801 61.7239L74.9561 104.097L40.8368 95.2511L5.83641 57.7814Z" fill="white"/>
<path id="Vector_3" d="M5.83641 57.7814L71.5692 2.37372L137.801 61.7239L74.9561 104.097L40.8368 95.2511L5.83641 57.7814Z" fill="white"/>
<path id="Vector_4" d="M43.7167 130.268H11.2431C11.0437 130.269 10.8462 130.224 10.6619 130.138C10.4776 130.051 10.3102 129.924 10.1691 129.764C10.028 129.603 9.91606 129.413 9.83969 129.204C9.76333 128.994 9.72401 128.77 9.72401 128.543C9.72401 128.316 9.76333 128.091 9.83969 127.882C9.91606 127.672 10.028 127.482 10.1691 127.322C10.3102 127.162 10.4776 127.034 10.6619 126.948C10.8462 126.861 11.0437 126.817 11.2431 126.817H43.7167C43.9161 126.817 44.1136 126.861 44.2979 126.948C44.4822 127.034 44.6497 127.162 44.7908 127.322C44.9319 127.482 45.0438 127.672 45.1202 127.882C45.1965 128.091 45.2358 128.316 45.2358 128.543C45.2358 128.77 45.1965 128.994 45.1202 129.204C45.0438 129.413 44.9319 129.603 44.7908 129.764C44.6497 129.924 44.4822 130.051 44.2979 130.138C44.1136 130.224 43.9161 130.269 43.7167 130.268Z" fill="#6C63FF"/>
<path id="Vector_5" d="M22.8939 122.849H11.2431C11.0437 122.85 10.8462 122.805 10.6619 122.719C10.4776 122.632 10.3102 122.505 10.1691 122.345C10.028 122.185 9.91606 121.994 9.83969 121.785C9.76333 121.575 9.72401 121.351 9.72401 121.124C9.72401 120.897 9.76333 120.673 9.83969 120.463C9.91606 120.254 10.028 120.063 10.1691 119.903C10.3102 119.743 10.4776 119.616 10.6619 119.529C10.8462 119.443 11.0437 119.398 11.2431 119.398H22.8939C23.0933 119.398 23.2908 119.443 23.4751 119.529C23.6594 119.616 23.8269 119.743 23.968 119.903C24.1091 120.063 24.221 120.254 24.2974 120.463C24.3737 120.673 24.413 120.897 24.413 121.124C24.413 121.351 24.3737 121.575 24.2974 121.785C24.221 121.994 24.1091 122.185 23.968 122.345C23.8269 122.505 23.6594 122.632 23.4751 122.719C23.2908 122.805 23.0933 122.85 22.8939 122.849Z" fill="#6C63FF"/>
<path id="Vector_6" d="M141.244 55.2627H141.194L112.393 69.2499L72.9877 88.3875C72.8338 88.4612 72.6685 88.4996 72.5015 88.5006C72.3345 88.5016 72.1689 88.4651 72.0143 88.3932L31.3597 69.21L1.85144 55.2855L1.80636 55.2627H1.75614C1.29054 55.2633 0.844159 55.4739 0.514931 55.8483C0.185702 56.2228 0.000516619 56.7305 0 57.26V144.003C0.000517282 144.532 0.185703 145.04 0.514931 145.414C0.844159 145.789 1.29054 145.999 1.75614 146H141.244C141.709 145.999 142.156 145.789 142.485 145.414C142.814 145.04 142.999 144.532 143 144.003V57.26C142.999 56.7305 142.814 56.2228 142.485 55.8483C142.156 55.4739 141.709 55.2633 141.244 55.2627ZM142.498 144.003C142.498 144.381 142.366 144.744 142.131 145.011C141.895 145.279 141.577 145.429 141.244 145.429H1.75614C1.4235 145.429 1.10452 145.279 0.869304 145.011C0.63409 144.744 0.501887 144.381 0.501754 144.003V57.26C0.502209 56.8911 0.628036 56.5366 0.852927 56.2708C1.07782 56.0049 1.38436 55.8482 1.70849 55.8334L31.3597 69.8263L71.8212 88.9211C72.2592 89.1238 72.75 89.1207 73.186 88.9125L112.393 69.8691L141.294 55.8334C141.618 55.8492 141.923 56.0064 142.148 56.2721C142.372 56.5379 142.498 56.8917 142.498 57.26V144.003Z" fill="#3F3D56"/>
<g id="card__like">
<path id="Vector_7" d="M72.4935 88.6428C72.2467 88.6431 72.0022 88.5886 71.7737 88.4824L31.2343 69.3509V9.46597C31.2348 8.93642 31.42 8.42875 31.7492 8.0543C32.0784 7.67986 32.5248 7.46922 32.9904 7.46861H110.762C111.228 7.46922 111.674 7.67986 112.004 8.0543C112.333 8.42875 112.518 8.93642 112.518 9.46597V69.3927L112.442 69.4297L73.2351 88.4731C73.0003 88.5853 72.7482 88.643 72.4935 88.6428Z" fill="white"/>
<path id="Vector_8" d="M72.4935 88.7853C72.2303 88.7857 71.9696 88.7276 71.7259 88.6145L31.1088 69.4462V9.46596C31.1094 8.89859 31.3078 8.35464 31.6606 7.95344C32.0133 7.55225 32.4916 7.32657 32.9904 7.32593H110.762C111.261 7.32657 111.739 7.55225 112.092 7.95344C112.445 8.35464 112.643 8.89859 112.644 9.46596V69.4869L73.2844 88.6042C73.034 88.724 72.7651 88.7856 72.4935 88.7853ZM31.6106 69.065L71.9173 88.0869C72.2932 88.2604 72.7143 88.2575 73.0884 88.0789L112.142 69.1101V9.46596C112.142 9.04989 111.996 8.65101 111.738 8.3568C111.479 8.0626 111.128 7.8971 110.762 7.89661H32.9904C32.6246 7.8971 32.2739 8.0626 32.0152 8.3568C31.7565 8.65101 31.611 9.04989 31.6106 9.46596L31.6106 69.065Z" fill="#3F3D56"/>
<path id="Vector_9" d="M72.0883 71.6616C70.5917 71.6648 69.1348 71.1144 67.9373 70.0934L67.8631 70.03L52.2307 56.4173C51.5067 55.7864 50.8991 54.9995 50.4425 54.1015C49.9859 53.2035 49.6893 52.212 49.5696 51.1837C49.45 50.1553 49.5095 49.1102 49.745 48.1081C49.9804 47.1059 50.3871 46.1663 50.9418 45.3429C51.4965 44.5194 52.1884 43.8284 52.9779 43.3091C53.7674 42.7898 54.6392 42.4524 55.5433 42.3163C56.4475 42.1802 57.3664 42.2479 58.2475 42.5157C59.1286 42.7835 59.9548 43.246 60.6787 43.8769L70.8042 52.7075L94.7324 17.2153C95.2873 16.3921 95.9794 15.7013 96.7691 15.1823C97.5588 14.6633 98.4306 14.3263 99.3348 14.1905C100.239 14.0548 101.158 14.1229 102.039 14.3911C102.92 14.6592 103.746 15.1221 104.47 15.7533L104.321 15.9831L104.474 15.7567C105.934 17.0329 106.889 18.9156 107.13 20.9919C107.371 23.0681 106.878 25.1683 105.759 26.8316L77.6137 68.5789C76.9628 69.541 76.1257 70.3195 75.1675 70.8541C74.2093 71.3887 73.1556 71.665 72.0883 71.6616Z" fill="#6C63FF"/>
</g>
</g>
<defs>
<clipPath id="clip0_112_14">
<rect width="143" height="146" fill="white"/>
</clipPath>
</defs>
</svg>
